<svg width="164" height="42" viewBox="0 0 164 42" fill="none" xmlns="http://www.w3.org/2000/svg">
<rect x="0.299805" y="0.960938" width="163.212" height="41.0271" rx="13.617" fill="#FFC145"/>
<path d="M25.5054 17.6146C25.6985 17.6146 25.8546 17.6778 25.9734 17.8041C26.0923 17.9304 26.1517 18.0938 26.1517 18.2944V22.3287C26.1517 22.9453 26.0217 23.4914 25.7617 23.9669C25.5017 24.4423 25.1376 24.8138 24.6695 25.0813C24.2015 25.3487 23.6666 25.4825 23.0648 25.4825C22.463 25.4825 21.9244 25.3487 21.4489 25.0813C20.9808 24.8138 20.6168 24.4423 20.3567 23.9669C20.0967 23.4914 19.9667 22.9453 19.9667 22.3287V18.2944C19.9667 18.1013 20.0335 17.9415 20.1673 17.8152C20.301 17.6815 20.4719 17.6146 20.6799 17.6146C20.8582 17.6146 21.0142 17.6815 21.148 17.8152C21.2817 17.9415 21.3486 18.1013 21.3486 18.2944V22.3287C21.3486 22.6853 21.4266 23.0047 21.5826 23.2871C21.7386 23.562 21.9466 23.7737 22.2067 23.9223C22.4741 24.0709 22.7602 24.1452 23.0648 24.1452C23.3842 24.1452 23.6814 24.0709 23.9563 23.9223C24.2386 23.7737 24.4615 23.562 24.625 23.2871C24.7959 23.0047 24.8813 22.6853 24.8813 22.3287V18.2944C24.8813 18.0938 24.937 17.9304 25.0485 17.8041C25.1599 17.6778 25.3122 17.6146 25.5054 17.6146ZM30.7998 19.3531C31.3124 19.3531 31.7767 19.4869 32.1928 19.7543C32.6088 20.0144 32.9357 20.3784 33.1735 20.8465C33.4187 21.3145 33.5412 21.8457 33.5412 22.4401C33.5412 23.0345 33.4224 23.5694 33.1846 24.0449C32.9469 24.5129 32.62 24.8807 32.2039 25.1482C31.7953 25.4082 31.3421 25.5382 30.8443 25.5382C30.4877 25.5382 30.1497 25.4676 29.8302 25.3265C29.5182 25.1779 29.2581 24.9996 29.0501 24.7915V26.9758C29.0501 27.169 28.987 27.3287 28.8607 27.455C28.7344 27.5887 28.5746 27.6556 28.3815 27.6556C28.1883 27.6556 28.0286 27.5925 27.9023 27.4662C27.7759 27.3399 27.7128 27.1764 27.7128 26.9758V20.1444C27.7128 19.9512 27.7759 19.7915 27.9023 19.6652C28.0286 19.5315 28.1883 19.4646 28.3815 19.4646C28.5746 19.4646 28.7344 19.5315 28.8607 19.6652C28.987 19.7915 29.0501 19.9512 29.0501 20.1444V20.189C29.2284 19.9661 29.4773 19.7729 29.7968 19.6095C30.1162 19.4386 30.4506 19.3531 30.7998 19.3531ZM30.6326 24.3123C31.1081 24.3123 31.4981 24.134 31.8027 23.7774C32.1073 23.4208 32.2597 22.975 32.2597 22.4401C32.2597 21.9052 32.1073 21.4631 31.8027 21.1139C31.5056 20.7573 31.1155 20.579 30.6326 20.579C30.1497 20.579 29.7559 20.7573 29.4513 21.1139C29.1467 21.4631 28.9944 21.9052 28.9944 22.4401C28.9944 22.975 29.1467 23.4208 29.4513 23.7774C29.7559 24.134 30.1497 24.3123 30.6326 24.3123ZM39.5931 19.3531C39.7863 19.3531 39.946 19.4163 40.0723 19.5426C40.1986 19.6689 40.2617 19.8323 40.2617 20.0329V24.9921C40.2617 25.8985 39.9794 26.5672 39.4148 26.9981C38.8576 27.4364 38.148 27.6556 37.2862 27.6556C37.0633 27.6556 36.755 27.6185 36.3613 27.5442C35.9749 27.4699 35.7 27.3956 35.5366 27.3213C35.1725 27.1653 34.9905 26.9498 34.9905 26.6749C34.9905 26.6229 35.0017 26.5635 35.0239 26.4966C35.0685 26.3332 35.1428 26.2069 35.2468 26.1177C35.3583 26.036 35.4771 25.9951 35.6034 25.9951C35.6777 25.9951 35.7483 26.0063 35.8152 26.0285C35.8449 26.036 36.0269 26.1028 36.3613 26.2291C36.703 26.3629 37.0113 26.4297 37.2862 26.4297C37.836 26.4297 38.2446 26.3183 38.5121 26.0954C38.787 25.88 38.9244 25.5716 38.9244 25.1704V24.6355C38.761 24.8658 38.5121 25.0739 38.1778 25.2596C37.8509 25.4453 37.498 25.5382 37.1191 25.5382C36.599 25.5382 36.1235 25.4082 35.6926 25.1482C35.2691 24.8807 34.9348 24.5129 34.6896 24.0449C34.4444 23.5768 34.3219 23.0456 34.3219 22.4512C34.3219 21.8569 34.4407 21.3257 34.6785 20.8576C34.9236 20.3821 35.2543 20.0144 35.6703 19.7543C36.0938 19.4869 36.5619 19.3531 37.0745 19.3531C37.4534 19.3531 37.8063 19.4312 38.1332 19.5872C38.4601 19.7432 38.7238 19.9326 38.9244 20.1555V20.0329C38.9244 19.8398 38.9876 19.68 39.1139 19.5537C39.2402 19.42 39.3999 19.3531 39.5931 19.3531ZM37.2862 24.3123C37.784 24.3123 38.1889 24.1377 38.5009 23.7886C38.8204 23.4319 38.9802 22.9862 38.9802 22.4512C38.9802 21.9163 38.8204 21.4706 38.5009 21.1139C38.1889 20.7573 37.784 20.579 37.2862 20.579C36.7884 20.579 36.3835 20.7573 36.0715 21.1139C35.7595 21.4706 35.6034 21.9163 35.6034 22.4512C35.6034 22.9862 35.7595 23.4319 36.0715 23.7886C36.3835 24.1377 36.7884 24.3123 37.2862 24.3123ZM44.8065 19.3531C45.0294 19.3531 45.2151 19.4163 45.3637 19.5426C45.5197 19.6689 45.5977 19.8175 45.5977 19.9884C45.5977 20.2187 45.5383 20.3933 45.4194 20.5121C45.3006 20.6236 45.1594 20.6793 44.996 20.6793C44.8845 20.6793 44.7582 20.6533 44.617 20.6013C44.5948 20.5939 44.5428 20.579 44.461 20.5567C44.3867 20.5344 44.305 20.5233 44.2159 20.5233C44.0227 20.5233 43.837 20.5827 43.6586 20.7016C43.4803 20.8205 43.3317 21.0025 43.2129 21.2477C43.1014 21.4854 43.0457 21.7714 43.0457 22.1058V24.747C43.0457 24.9401 42.9826 25.1036 42.8563 25.2373C42.73 25.3636 42.5702 25.4268 42.3771 25.4268C42.1839 25.4268 42.0242 25.3636 41.8979 25.2373C41.7716 25.1036 41.7084 24.9401 41.7084 24.747V20.1444C41.7084 19.9512 41.7716 19.7915 41.8979 19.6652C42.0242 19.5315 42.1839 19.4646 42.3771 19.4646C42.5702 19.4646 42.73 19.5315 42.8563 19.6652C42.9826 19.7915 43.0457 19.9512 43.0457 20.1444V20.2893C43.2166 19.9847 43.4618 19.7543 43.7812 19.5983C44.1007 19.4349 44.4425 19.3531 44.8065 19.3531ZM51.2353 19.3531C51.4285 19.3531 51.5882 19.4163 51.7145 19.5426C51.8408 19.6689 51.904 19.8323 51.904 20.0329V24.747C51.904 24.9401 51.8408 25.1036 51.7145 25.2373C51.5882 25.3636 51.4285 25.4268 51.2353 25.4268C51.0422 25.4268 50.8824 25.3636 50.7561 25.2373C50.6373 25.111 50.5741 24.9513 50.5667 24.7581C50.3809 24.9736 50.1283 25.1593 49.8089 25.3153C49.4968 25.4639 49.1662 25.5382 48.817 25.5382C48.3044 25.5382 47.8401 25.4082 47.424 25.1482C47.008 24.8807 46.6773 24.5129 46.4322 24.0449C46.1944 23.5768 46.0756 23.0456 46.0756 22.4512C46.0756 21.8569 46.1944 21.3257 46.4322 20.8576C46.6699 20.3821 46.9931 20.0144 47.4017 19.7543C47.8178 19.4869 48.2747 19.3531 48.7725 19.3531C49.1291 19.3531 49.4634 19.42 49.7754 19.5537C50.0875 19.68 50.3512 19.8435 50.5667 20.0441V20.0329C50.5667 19.8398 50.6298 19.68 50.7561 19.5537C50.8824 19.42 51.0422 19.3531 51.2353 19.3531ZM48.9842 24.3123C49.4671 24.3123 49.8609 24.1377 50.1655 23.7886C50.4701 23.4319 50.6224 22.9862 50.6224 22.4512C50.6224 21.9163 50.4701 21.4706 50.1655 21.1139C49.8609 20.7573 49.4671 20.579 48.9842 20.579C48.5087 20.579 48.1187 20.7573 47.8141 21.1139C47.5094 21.4706 47.3571 21.9163 47.3571 22.4512C47.3571 22.9862 47.5057 23.4319 47.8029 23.7886C48.1075 24.1377 48.5013 24.3123 48.9842 24.3123ZM58.1787 17.18C58.3719 17.18 58.5316 17.2432 58.6579 17.3695C58.7842 17.4958 58.8474 17.6592 58.8474 17.8598V24.747C58.8474 24.9401 58.7842 25.1036 58.6579 25.2373C58.5316 25.3636 58.3719 25.4268 58.1787 25.4268C57.9856 25.4268 57.8258 25.3636 57.6995 25.2373C57.5807 25.111 57.5175 24.9513 57.5101 24.7581C57.3243 24.9736 57.0717 25.1593 56.7523 25.3153C56.4402 25.4639 56.1096 25.5382 55.7604 25.5382C55.2478 25.5382 54.7834 25.4082 54.3674 25.1482C53.9513 24.8807 53.6207 24.5129 53.3756 24.0449C53.1378 23.5768 53.0189 23.0456 53.0189 22.4512C53.0189 21.8569 53.1378 21.3257 53.3756 20.8576C53.6133 20.3821 53.9365 20.0144 54.3451 19.7543C54.7612 19.4869 55.2181 19.3531 55.7158 19.3531C56.0725 19.3531 56.4068 19.42 56.7188 19.5537C57.0309 19.68 57.2946 19.8435 57.5101 20.0441V17.8598C57.5101 17.6666 57.5732 17.5069 57.6995 17.3806C57.8258 17.2469 57.9856 17.18 58.1787 17.18ZM55.9276 24.3123C56.4105 24.3123 56.8043 24.1377 57.1089 23.7886C57.4135 23.4319 57.5658 22.9862 57.5658 22.4512C57.5658 21.9163 57.4135 21.4706 57.1089 21.1139C56.8043 20.7573 56.4105 20.579 55.9276 20.579C55.4521 20.579 55.0621 20.7573 54.7574 21.1139C54.4528 21.4706 54.3005 21.9163 54.3005 22.4512C54.3005 22.9862 54.4491 23.4319 54.7463 23.7886C55.0509 24.1377 55.4447 24.3123 55.9276 24.3123ZM65.6459 22.3064C65.6385 22.4847 65.5679 22.6296 65.4341 22.741C65.3004 22.8524 65.1444 22.9082 64.9661 22.9082H61.2885C61.3776 23.3465 61.582 23.692 61.9014 23.9446C62.2209 24.1897 62.5812 24.3123 62.9824 24.3123C63.287 24.3123 63.5248 24.2863 63.6956 24.2343C63.8665 24.1749 64.0003 24.1155 64.0968 24.056C64.2009 23.9892 64.2714 23.9446 64.3086 23.9223C64.4423 23.8554 64.5686 23.822 64.6875 23.822C64.8435 23.822 64.9772 23.8777 65.0887 23.9892C65.2001 24.1006 65.2558 24.2306 65.2558 24.3792C65.2558 24.5798 65.1518 24.7618 64.9438 24.9253C64.7358 25.0961 64.4572 25.241 64.108 25.3599C63.7588 25.4788 63.4059 25.5382 63.0493 25.5382C62.4252 25.5382 61.8791 25.4082 61.4111 25.1482C60.9504 24.8881 60.5938 24.5315 60.3412 24.0783C60.0886 23.6177 59.9623 23.1013 59.9623 22.5293C59.9623 21.8903 60.0961 21.3294 60.3635 20.8465C60.631 20.3636 60.9839 19.9958 61.4222 19.7432C61.8606 19.4832 62.3286 19.3531 62.8264 19.3531C63.3167 19.3531 63.7774 19.4869 64.2083 19.7543C64.6466 20.0218 64.9958 20.3821 65.2558 20.8353C65.5159 21.2885 65.6459 21.7789 65.6459 22.3064ZM62.8264 20.579C61.9646 20.579 61.4557 20.9839 61.2996 21.7937H64.2194V21.7157C64.1897 21.4037 64.0374 21.1362 63.7625 20.9133C63.4876 20.6905 63.1756 20.579 62.8264 20.579ZM72.7598 24.1675C72.8638 24.1675 72.9567 24.2195 73.0384 24.3235C73.1276 24.4201 73.1722 24.5501 73.1722 24.7135C73.1722 24.9141 73.0607 25.085 72.8378 25.2262C72.6224 25.3599 72.3772 25.4268 72.1023 25.4268C71.6417 25.4268 71.2516 25.3302 70.9322 25.137C70.6201 24.9364 70.4641 24.5166 70.4641 23.8777V20.8019H69.9515C69.7732 20.8019 69.6246 20.7425 69.5057 20.6236C69.3868 20.5047 69.3274 20.3561 69.3274 20.1778C69.3274 20.0069 69.3868 19.8658 69.5057 19.7543C69.6246 19.6355 69.7732 19.576 69.9515 19.576H70.4641V18.8628C70.4641 18.6696 70.5273 18.5099 70.6536 18.3836C70.7873 18.2499 70.9508 18.183 71.1439 18.183C71.3297 18.183 71.4857 18.2499 71.612 18.3836C71.7383 18.5099 71.8014 18.6696 71.8014 18.8628V19.576H72.5927C72.771 19.576 72.9196 19.6355 73.0384 19.7543C73.1573 19.8732 73.2167 20.0218 73.2167 20.2001C73.2167 20.371 73.1573 20.5159 73.0384 20.6347C72.9196 20.7462 72.771 20.8019 72.5927 20.8019H71.8014V23.822C71.8014 23.978 71.8423 24.0932 71.924 24.1675C72.0057 24.2343 72.1172 24.2678 72.2583 24.2678C72.3178 24.2678 72.3995 24.2529 72.5035 24.2232C72.5927 24.186 72.6781 24.1675 72.7598 24.1675ZM80.1183 22.4512C80.1183 23.0456 79.9846 23.5805 79.7172 24.056C79.4497 24.5241 79.0819 24.8881 78.6139 25.1482C78.1532 25.4082 77.6443 25.5382 77.0871 25.5382C76.5225 25.5382 76.0098 25.4082 75.5492 25.1482C75.0886 24.8881 74.7245 24.5241 74.4571 24.056C74.1896 23.5805 74.0559 23.0456 74.0559 22.4512C74.0559 21.8569 74.1896 21.3257 74.4571 20.8576C74.7245 20.3821 75.0886 20.0144 75.5492 19.7543C76.0098 19.4869 76.5225 19.3531 77.0871 19.3531C77.6443 19.3531 78.1532 19.4869 78.6139 19.7543C79.0819 20.0144 79.4497 20.3821 79.7172 20.8576C79.9846 21.3257 80.1183 21.8569 80.1183 22.4512ZM78.781 22.4512C78.781 22.0872 78.703 21.764 78.547 21.4817C78.3984 21.1919 78.1941 20.9691 77.9341 20.813C77.6815 20.657 77.3992 20.579 77.0871 20.579C76.7751 20.579 76.489 20.657 76.229 20.813C75.9764 20.9691 75.7721 21.1919 75.6161 21.4817C75.4675 21.764 75.3932 22.0872 75.3932 22.4512C75.3932 22.8153 75.4675 23.1385 75.6161 23.4208C75.7721 23.7031 75.9764 23.9223 76.229 24.0783C76.489 24.2343 76.7751 24.3123 77.0871 24.3123C77.3992 24.3123 77.6815 24.2343 77.9341 24.0783C78.1941 23.9223 78.3984 23.7031 78.547 23.4208C78.703 23.1385 78.781 22.8153 78.781 22.4512ZM87.446 19.3531C87.9587 19.3531 88.423 19.4869 88.8391 19.7543C89.2551 20.0144 89.582 20.3784 89.8198 20.8465C90.0649 21.3145 90.1875 21.8457 90.1875 22.4401C90.1875 23.0345 90.0686 23.5694 89.8309 24.0449C89.5932 24.5129 89.2663 24.8807 88.8502 25.1482C88.4416 25.4082 87.9884 25.5382 87.4906 25.5382C87.134 25.5382 86.796 25.4676 86.4765 25.3265C86.1644 25.1779 85.9044 24.9996 85.6964 24.7915V26.9758C85.6964 27.169 85.6332 27.3287 85.5069 27.455C85.3806 27.5887 85.2209 27.6556 85.0277 27.6556C84.8346 27.6556 84.6748 27.5925 84.5485 27.4662C84.4222 27.3399 84.3591 27.1764 84.3591 26.9758V20.1444C84.3591 19.9512 84.4222 19.7915 84.5485 19.6652C84.6748 19.5315 84.8346 19.4646 85.0277 19.4646C85.2209 19.4646 85.3806 19.5315 85.5069 19.6652C85.6332 19.7915 85.6964 19.9512 85.6964 20.1444V20.189C85.8747 19.9661 86.1236 19.7729 86.4431 19.6095C86.7625 19.4386 87.0968 19.3531 87.446 19.3531ZM87.2789 24.3123C87.7544 24.3123 88.1444 24.134 88.449 23.7774C88.7536 23.4208 88.9059 22.975 88.9059 22.4401C88.9059 21.9052 88.7536 21.4631 88.449 21.1139C88.1518 20.7573 87.7618 20.579 87.2789 20.579C86.796 20.579 86.4022 20.7573 86.0976 21.1139C85.793 21.4631 85.6407 21.9052 85.6407 22.4401C85.6407 22.975 85.793 23.4208 86.0976 23.7774C86.4022 24.134 86.796 24.3123 87.2789 24.3123ZM94.4006 19.3531C94.6234 19.3531 94.8092 19.4163 94.9578 19.5426C95.1138 19.6689 95.1918 19.8175 95.1918 19.9884C95.1918 20.2187 95.1324 20.3933 95.0135 20.5121C94.8946 20.6236 94.7535 20.6793 94.59 20.6793C94.4786 20.6793 94.3523 20.6533 94.2111 20.6013C94.1888 20.5939 94.1368 20.579 94.0551 20.5567C93.9808 20.5344 93.8991 20.5233 93.8099 20.5233C93.6168 20.5233 93.431 20.5827 93.2527 20.7016C93.0744 20.8205 92.9258 21.0025 92.8069 21.2477C92.6955 21.4854 92.6398 21.7714 92.6398 22.1058V24.747C92.6398 24.9401 92.5766 25.1036 92.4503 25.2373C92.324 25.3636 92.1643 25.4268 91.9711 25.4268C91.778 25.4268 91.6182 25.3636 91.4919 25.2373C91.3656 25.1036 91.3025 24.9401 91.3025 24.747V20.1444C91.3025 19.9512 91.3656 19.7915 91.4919 19.6652C91.6182 19.5315 91.778 19.4646 91.9711 19.4646C92.1643 19.4646 92.324 19.5315 92.4503 19.6652C92.5766 19.7915 92.6398 19.9512 92.6398 20.1444V20.2893C92.8107 19.9847 93.0558 19.7543 93.3753 19.5983C93.6948 19.4349 94.0365 19.3531 94.4006 19.3531ZM101.233 22.3064C101.226 22.4847 101.155 22.6296 101.022 22.741C100.888 22.8524 100.732 22.9082 100.554 22.9082H96.8761C96.9652 23.3465 97.1695 23.692 97.489 23.9446C97.8085 24.1897 98.1688 24.3123 98.57 24.3123C98.8746 24.3123 99.1123 24.2863 99.2832 24.2343C99.4541 24.1749 99.5878 24.1155 99.6844 24.056C99.7884 23.9892 99.859 23.9446 99.8962 23.9223C100.03 23.8554 100.156 23.822 100.275 23.822C100.431 23.822 100.565 23.8777 100.676 23.9892C100.788 24.1006 100.843 24.2306 100.843 24.3792C100.843 24.5798 100.739 24.7618 100.531 24.9253C100.323 25.0961 100.045 25.241 99.6956 25.3599C99.3464 25.4788 98.9935 25.5382 98.6369 25.5382C98.0128 25.5382 97.4667 25.4082 96.9987 25.1482C96.538 24.8881 96.1814 24.5315 95.9288 24.0783C95.6762 23.6177 95.5499 23.1013 95.5499 22.5293C95.5499 21.8903 95.6836 21.3294 95.9511 20.8465C96.2186 20.3636 96.5715 19.9958 97.0098 19.7432C97.4481 19.4832 97.9162 19.3531 98.414 19.3531C98.9043 19.3531 99.3649 19.4869 99.7959 19.7543C100.234 20.0218 100.583 20.3821 100.843 20.8353C101.103 21.2885 101.233 21.7789 101.233 22.3064ZM98.414 20.579C97.5521 20.579 97.0432 20.9839 96.8872 21.7937H99.807V21.7157C99.7773 21.4037 99.625 21.1362 99.3501 20.9133C99.0752 20.6905 98.7632 20.579 98.414 20.579ZM109.225 19.3531C109.96 19.3531 110.469 19.5797 110.752 20.0329C111.034 20.4787 111.175 21.0991 111.175 21.894V24.747C111.175 24.9401 111.112 25.1036 110.986 25.2373C110.859 25.3636 110.7 25.4268 110.506 25.4268C110.313 25.4268 110.153 25.3636 110.027 25.2373C109.901 25.1036 109.838 24.9401 109.838 24.747V21.894C109.838 21.4854 109.756 21.1659 109.593 20.9356C109.437 20.6979 109.158 20.579 108.757 20.579C108.341 20.579 108.014 20.7053 107.776 20.9579C107.546 21.2031 107.431 21.5151 107.431 21.894V24.747C107.431 24.9401 107.367 25.1036 107.241 25.2373C107.115 25.3636 106.955 25.4268 106.762 25.4268C106.569 25.4268 106.409 25.3636 106.283 25.2373C106.156 25.1036 106.093 24.9401 106.093 24.747V21.894C106.093 21.4854 106.012 21.1659 105.848 20.9356C105.692 20.6979 105.413 20.579 105.012 20.579C104.596 20.579 104.269 20.7053 104.032 20.9579C103.801 21.2031 103.686 21.5151 103.686 21.894V24.747C103.686 24.9401 103.623 25.1036 103.497 25.2373C103.37 25.3636 103.211 25.4268 103.017 25.4268C102.824 25.4268 102.665 25.3636 102.538 25.2373C102.412 25.1036 102.349 24.9401 102.349 24.747V20.1444C102.349 19.9512 102.412 19.7915 102.538 19.6652C102.665 19.5315 102.824 19.4646 103.017 19.4646C103.211 19.4646 103.37 19.5315 103.497 19.6652C103.623 19.7915 103.686 19.9512 103.686 20.1444V20.3227C103.887 20.0552 104.139 19.8286 104.444 19.6429C104.756 19.4497 105.101 19.3531 105.48 19.3531C106.416 19.3531 107.014 19.7618 107.275 20.579C107.445 20.267 107.702 19.9847 108.043 19.732C108.393 19.4794 108.786 19.3531 109.225 19.3531ZM113.882 24.747C113.882 24.9401 113.819 25.1036 113.692 25.2373C113.566 25.3636 113.406 25.4268 113.213 25.4268C113.02 25.4268 112.86 25.3636 112.734 25.2373C112.608 25.1036 112.544 24.9401 112.544 24.747V20.1444C112.544 19.9512 112.608 19.7915 112.734 19.6652C112.86 19.5315 113.02 19.4646 113.213 19.4646C113.406 19.4646 113.566 19.5315 113.692 19.6652C113.819 19.7915 113.882 19.9512 113.882 20.1444V24.747ZM113.202 18.7402C112.949 18.7402 112.771 18.6993 112.667 18.6176C112.563 18.5359 112.511 18.391 112.511 18.183V17.9713C112.511 17.7632 112.567 17.6184 112.678 17.5366C112.79 17.4549 112.968 17.414 113.213 17.414C113.473 17.414 113.655 17.4549 113.759 17.5366C113.863 17.6184 113.915 17.7632 113.915 17.9713V18.183C113.915 18.3985 113.859 18.547 113.748 18.6288C113.644 18.7031 113.462 18.7402 113.202 18.7402ZM119.68 19.4646C119.873 19.4646 120.033 19.5315 120.16 19.6652C120.286 19.7915 120.349 19.9512 120.349 20.1444V22.975C120.349 23.7774 120.126 24.4052 119.68 24.8584C119.242 25.3116 118.614 25.5382 117.797 25.5382C116.98 25.5382 116.352 25.3116 115.914 24.8584C115.475 24.4052 115.256 23.7774 115.256 22.975V20.1444C115.256 19.9512 115.319 19.7915 115.446 19.6652C115.572 19.5315 115.732 19.4646 115.925 19.4646C116.118 19.4646 116.278 19.5315 116.404 19.6652C116.53 19.7915 116.593 19.9512 116.593 20.1444V22.975C116.593 23.4282 116.694 23.7663 116.894 23.9892C117.095 24.2046 117.396 24.3123 117.797 24.3123C118.206 24.3123 118.51 24.2046 118.711 23.9892C118.911 23.7663 119.012 23.4282 119.012 22.975V20.1444C119.012 19.9512 119.075 19.7915 119.201 19.6652C119.327 19.5315 119.487 19.4646 119.68 19.4646ZM128.673 19.3531C129.408 19.3531 129.917 19.5797 130.2 20.0329C130.482 20.4787 130.623 21.0991 130.623 21.894V24.747C130.623 24.9401 130.56 25.1036 130.434 25.2373C130.307 25.3636 130.148 25.4268 129.954 25.4268C129.761 25.4268 129.601 25.3636 129.475 25.2373C129.349 25.1036 129.286 24.9401 129.286 24.747V21.894C129.286 21.4854 129.204 21.1659 129.041 20.9356C128.885 20.6979 128.606 20.579 128.205 20.579C127.789 20.579 127.462 20.7053 127.224 20.9579C126.994 21.2031 126.879 21.5151 126.879 21.894V24.747C126.879 24.9401 126.815 25.1036 126.689 25.2373C126.563 25.3636 126.403 25.4268 126.21 25.4268C126.017 25.4268 125.857 25.3636 125.731 25.2373C125.604 25.1036 125.541 24.9401 125.541 24.747V21.894C125.541 21.4854 125.46 21.1659 125.296 20.9356C125.14 20.6979 124.861 20.579 124.46 20.579C124.044 20.579 123.717 20.7053 123.48 20.9579C123.249 21.2031 123.134 21.5151 123.134 21.894V24.747C123.134 24.9401 123.071 25.1036 122.945 25.2373C122.818 25.3636 122.659 25.4268 122.465 25.4268C122.272 25.4268 122.113 25.3636 121.986 25.2373C121.86 25.1036 121.797 24.9401 121.797 24.747V20.1444C121.797 19.9512 121.86 19.7915 121.986 19.6652C122.113 19.5315 122.272 19.4646 122.465 19.4646C122.659 19.4646 122.818 19.5315 122.945 19.6652C123.071 19.7915 123.134 19.9512 123.134 20.1444V20.3227C123.335 20.0552 123.587 19.8286 123.892 19.6429C124.204 19.4497 124.549 19.3531 124.928 19.3531C125.864 19.3531 126.462 19.7618 126.723 20.579C126.893 20.267 127.15 19.9847 127.491 19.732C127.841 19.4794 128.234 19.3531 128.673 19.3531Z" fill="#404040"/>
<path d="M141.042 25.1131V17.8345" stroke="#404040" stroke-width="1.5" stroke-linecap="round" stroke-linejoin="round"/>
<path d="M137.403 21.4738L141.043 17.8345L144.682 21.4738" stroke="#404040" stroke-width="1.5" stroke-linecap="round" stroke-linejoin="round"/>
</svg>
